<svg width="55" height="55" viewBox="0 0 55 55" fill="none" xmlns="http://www.w3.org/2000/svg">
<rect width="55" height="55" fill="#C5C8D0"/>
<g clip-path="url(#clip0)">
<path fill-rule="evenodd" clip-rule="evenodd" d="M26.687 22.4102H29.313L32.8695 14.8932C33.4733 13.617 32.6679 12.3906 31.7107 12.3906C29.2369 12.3906 26.7631 12.3906 24.2893 12.3906C23.3321 12.3906 22.5267 13.617 23.1305 14.8932L26.687 22.4102Z" fill="#E8EAF0"/>
<path fill-rule="evenodd" clip-rule="evenodd" d="M26.687 22.4102H29.3131V23.9726H26.687V22.4102Z" fill="#FFC144"/>
<path fill-rule="evenodd" clip-rule="evenodd" d="M29.313 23.9726H26.687C26.4556 25.5819 26.2243 26.8005 25.993 28.4097C25.7462 30.1265 26.3583 31.6094 28 31.6094C29.6417 31.6094 30.2538 30.1264 30.007 28.4097C29.7757 26.8005 29.5444 25.5819 29.313 23.9726Z" fill="#A4AABE"/>
<path d="M33.2226 15.0602C33.5768 14.3117 33.5456 13.4816 33.1392 12.8397C32.8063 12.3139 32.2723 12 31.7107 12H24.2893C23.7277 12 23.1938 12.3139 22.8608 12.8397C22.4544 13.4816 22.4233 14.3117 22.7774 15.0602L26.2964 22.4979V23.9446C26.1825 24.7345 26.0667 25.4428 25.9545 26.1281C25.8405 26.8251 25.7225 27.5458 25.6063 28.3541C25.4336 29.5562 25.6531 30.5815 26.2247 31.241C26.6549 31.7375 27.2688 32 28 32C28.7312 32 29.3451 31.7375 29.7753 31.2411C30.3468 30.5815 30.5664 29.5562 30.3936 28.3542C30.2774 27.5458 30.1595 26.8251 30.0455 26.1281C29.9333 25.4428 29.8175 24.7345 29.7036 23.9447V22.4979L33.2226 15.0602ZM27.0776 23.582V22.8008H28.9224V23.582H27.0776ZM23.4836 14.7261C23.2446 14.2209 23.2586 13.672 23.5209 13.2576C23.7098 12.9593 23.997 12.7812 24.2893 12.7812H31.7107C32.003 12.7812 32.2902 12.9593 32.4791 13.2576C32.7415 13.672 32.7554 14.2209 32.5164 14.7261L29.0657 22.0195H26.9343L23.4836 14.7261ZM29.1849 30.7295C28.9036 31.0541 28.5049 31.2188 28 31.2188C27.4951 31.2188 27.0965 31.0541 26.8151 30.7295C26.4004 30.2508 26.2417 29.4256 26.3797 28.4654C26.4948 27.6645 26.6121 26.9476 26.7256 26.2543C26.8236 25.6551 26.9245 25.038 27.0247 24.3632H28.9754C29.0756 25.038 29.1765 25.6551 29.2745 26.2543C29.388 26.9475 29.5053 27.6645 29.6204 28.4654C29.7584 29.4256 29.5997 30.2508 29.1849 30.7295V30.7295Z" fill="black"/>
<path d="M28.0003 29.2656H28C27.7843 29.2656 27.6095 29.4405 27.6095 29.6562C27.6095 29.8719 27.7845 30.0468 28.0003 30.0468C28.216 30.0468 28.3909 29.8719 28.3909 29.6562C28.3909 29.4405 28.2161 29.2656 28.0003 29.2656Z" fill="black"/>
<path d="M27.0577 13.9532C27.0577 13.7375 26.8829 13.5625 26.6671 13.5625H24.5188C24.3031 13.5625 24.1282 13.7375 24.1282 13.9532C24.1282 14.1689 24.3031 14.3438 24.5188 14.3438H26.6671C26.8829 14.3438 27.0577 14.1689 27.0577 13.9532Z" fill="black"/>
<path d="M28.4248 14.3438H28.425C28.6408 14.3438 28.8156 14.1689 28.8156 13.9532C28.8156 13.7375 28.6405 13.5625 28.4248 13.5625C28.209 13.5625 28.0341 13.7375 28.0341 13.9532C28.0341 14.1689 28.209 14.3438 28.4248 14.3438Z" fill="black"/>
</g>
<path d="M3.5845 45V44.352L3.8485 44.328C4.00317 44.312 4.0805 44.2373 4.0805 44.104V40.384L3.6245 40.36V39.68H5.8165C6.6005 39.68 7.21117 39.888 7.6485 40.304C8.09117 40.72 8.3125 41.336 8.3125 42.152C8.3125 42.6587 8.24583 43.1013 8.1125 43.48C7.97917 43.8533 7.79783 44.1467 7.5685 44.36C7.10983 44.7867 6.53917 45 5.8565 45H3.5845ZM5.0565 40.456V44.232H5.8725C6.33117 44.232 6.6885 44.0667 6.9445 43.736C7.2005 43.4053 7.3285 42.9253 7.3285 42.296C7.3285 41.0693 6.8085 40.456 5.7685 40.456H5.0565ZM8.88881 45V44.352L9.15281 44.328C9.30748 44.312 9.38481 44.2373 9.38481 44.104V40.384L8.92881 40.36V39.68H11.1128C11.7315 39.68 12.2061 39.7947 12.5368 40.024C12.8675 40.2533 13.0328 40.6293 13.0328 41.152C13.0328 41.5147 12.9368 41.8133 12.7448 42.048C12.5581 42.2827 12.3341 42.4533 12.0728 42.56C12.2648 42.6293 12.4168 42.792 12.5288 43.048L13.1048 44.304L13.5608 44.32V45H11.5848V44.352L11.8168 44.328C11.9395 44.312 12.0008 44.264 12.0008 44.184C12.0008 44.152 11.9901 44.1147 11.9688 44.072L11.5928 43.272C11.5341 43.1387 11.4675 43.0453 11.3928 42.992C11.3235 42.9333 11.2221 42.904 11.0888 42.904H10.3608V44.296L10.8808 44.32V45H8.88881ZM10.3608 42.144H11.0568C11.7128 42.144 12.0408 41.8507 12.0408 41.264C12.0408 40.928 11.9528 40.7093 11.7768 40.608C11.6061 40.5067 11.3288 40.456 10.9448 40.456H10.3608V42.144ZM15.0182 44.104V42.968L13.6582 40.384L13.2822 40.36V39.68H15.2342V40.328L14.9942 40.352C14.9089 40.3573 14.8529 40.3893 14.8262 40.448C14.8049 40.5067 14.8155 40.5787 14.8582 40.664L15.5382 42.056H15.5702L16.4422 40.392L16.0422 40.36V39.68H17.7622V40.328L17.5222 40.352C17.4209 40.3627 17.3302 40.4427 17.2502 40.592L15.9942 42.968V44.296L16.6182 44.32V45H14.3622V44.352L14.7862 44.328C14.9409 44.3173 15.0182 44.2427 15.0182 44.104ZM24.9228 40.328L24.6588 40.352C24.5201 40.3627 24.4321 40.4587 24.3948 40.64L23.3868 45H22.2908L21.4508 41.44H21.4268L20.6108 45H19.4828L18.3788 40.384L17.9228 40.36V39.68H19.9068V40.328L19.6428 40.352C19.4775 40.368 19.3948 40.4373 19.3948 40.56C19.3948 40.5813 19.3975 40.6053 19.4028 40.632L20.0988 43.72H20.1308L20.9628 40.104H21.9948L22.8588 43.736H22.8748L23.5548 40.392L23.1228 40.36V39.68H24.9228V40.328ZM24.8643 44.104L26.1523 40.376L25.6483 40.328V39.68H27.4803L29.1123 44.296H29.1203L29.5763 44.32V45H27.5123V44.352L27.8163 44.328C27.907 44.3173 27.9683 44.296 28.0003 44.264C28.0323 44.232 28.035 44.1733 28.0083 44.088L27.8403 43.592H25.9683L25.7283 44.296L26.2083 44.32V45H24.3603V44.352L24.6243 44.328C24.7363 44.3173 24.8163 44.2427 24.8643 44.104ZM26.9043 40.576L26.1603 42.856H27.6483L26.9283 40.576H26.9043ZM33.6732 45H29.8732V44.352L30.1372 44.328C30.2919 44.312 30.3692 44.2373 30.3692 44.104V40.384L29.9132 40.36V39.68H31.8412V40.328L31.5772 40.352C31.4225 40.368 31.3452 40.4533 31.3452 40.608V44.176H32.6732C32.7479 44.176 32.7959 44.1573 32.8172 44.12C32.8439 44.0773 32.8572 44.0107 32.8572 43.92V43.36L33.6732 43.416V45ZM37.9701 45H34.1701V44.352L34.4341 44.328C34.5887 44.312 34.6661 44.2373 34.6661 44.104V40.384L34.2101 40.36V39.68H36.1381V40.328L35.8741 40.352C35.7194 40.368 35.6421 40.4533 35.6421 40.608V44.176H36.9701C37.0447 44.176 37.0927 44.1573 37.1141 44.12C37.1407 44.0773 37.1541 44.0107 37.1541 43.92V43.36L37.9701 43.416V45ZM40.0845 45V44.352L40.3485 44.328C40.5032 44.312 40.5805 44.2373 40.5805 44.104V40.384L40.1245 40.36V39.68H43.9885V41.008L43.1725 41.064V40.744C43.1725 40.6533 43.1592 40.5893 43.1325 40.552C43.1058 40.5147 43.0418 40.496 42.9405 40.496H41.5565V41.912H43.5245V42.728H41.5565V44.296L42.2685 44.32V45H40.0845ZM47.6443 40.528C47.5856 40.4267 47.3669 40.376 46.9883 40.376C46.4923 40.376 46.1163 40.544 45.8603 40.88C45.6043 41.216 45.4763 41.7013 45.4763 42.336C45.4763 43.6533 45.9696 44.312 46.9563 44.312C46.9723 44.312 47.0416 44.312 47.1643 44.312C47.2923 44.312 47.4123 44.296 47.5243 44.264C47.6363 44.2267 47.7029 44.1893 47.7243 44.152C47.7456 44.1147 47.7563 44.056 47.7563 43.976V43.336L48.5723 43.392V44.776C48.1563 44.9947 47.6283 45.104 46.9883 45.104C46.1723 45.104 45.5483 44.8747 45.1163 44.416C44.6896 43.9573 44.4763 43.2747 44.4763 42.368C44.4763 41.8667 44.5483 41.4293 44.6923 41.056C44.8363 40.6827 45.0309 40.392 45.2763 40.184C45.7563 39.784 46.3269 39.584 46.9883 39.584C47.5216 39.584 48.0229 39.6933 48.4923 39.912V41.272L47.6763 41.328V40.704C47.6763 40.624 47.6656 40.5653 47.6443 40.528ZM49.2248 45V44.352L49.4888 44.328C49.6434 44.312 49.7208 44.2373 49.7208 44.104V40.384L49.2648 40.36V39.68H51.5528C52.1501 39.68 52.6141 39.8213 52.9448 40.104C53.2808 40.3813 53.4488 40.8 53.4488 41.36C53.4488 41.92 53.2594 42.3573 52.8808 42.672C52.5021 42.9813 52.0008 43.136 51.3768 43.136H50.6968V44.296L51.4648 44.32V45H49.2248ZM50.6968 42.36H51.2728C52.0514 42.36 52.4408 42.0427 52.4408 41.408C52.4408 41.024 52.3394 40.7707 52.1368 40.648C51.9394 40.52 51.6221 40.456 51.1848 40.456H50.6968V42.36Z" fill="black"/>
<defs>
<clipPath id="clip0">
<rect width="20" height="20" fill="white" transform="translate(18 12)"/>
</clipPath>
</defs>
</svg>
